<mxfile host="app.diagrams.net" modified="2021-08-10T02:40:40.236Z" agent="5.0 (Macintosh; Intel Mac OS X 10_15_7) AppleWebKit/537.36 (KHTML, like Gecko) Chrome/92.0.4515.131 Safari/537.36" etag="t_1QDCM8pSD8islU9cEe" version="14.9.5" type="github">
  <diagram id="XeKue4bGJ2HKQ-jZFkni" name="Page-1">
    <mxGraphModel dx="1426" dy="826" grid="1" gridSize="10" guides="1" tooltips="1" connect="1" arrows="1" fold="1" page="1" pageScale="1" pageWidth="827" pageHeight="1169" math="0" shadow="0">
      <root>
        <mxCell id="0" />
        <mxCell id="1" parent="0" />
        <mxCell id="LaTPF1o16GnauaSsGzQP-10" value="" style="edgeStyle=orthogonalEdgeStyle;rounded=0;orthogonalLoop=1;jettySize=auto;html=1;" edge="1" parent="1" source="LaTPF1o16GnauaSsGzQP-1" target="LaTPF1o16GnauaSsGzQP-9">
          <mxGeometry relative="1" as="geometry" />
        </mxCell>
        <mxCell id="LaTPF1o16GnauaSsGzQP-24" value="Get Model" style="edgeLabel;html=1;align=center;verticalAlign=middle;resizable=0;points=[];" vertex="1" connectable="0" parent="LaTPF1o16GnauaSsGzQP-10">
          <mxGeometry x="0.34" y="-4" relative="1" as="geometry">
            <mxPoint x="7" y="4" as="offset" />
          </mxGeometry>
        </mxCell>
        <mxCell id="LaTPF1o16GnauaSsGzQP-1" value="ThemeFilter" style="whiteSpace=wrap;html=1;aspect=fixed;" vertex="1" parent="1">
          <mxGeometry x="320" y="270" width="80" height="80" as="geometry" />
        </mxCell>
        <mxCell id="LaTPF1o16GnauaSsGzQP-8" value="" style="edgeStyle=orthogonalEdgeStyle;rounded=0;orthogonalLoop=1;jettySize=auto;html=1;" edge="1" parent="1" source="LaTPF1o16GnauaSsGzQP-4" target="LaTPF1o16GnauaSsGzQP-1">
          <mxGeometry relative="1" as="geometry" />
        </mxCell>
        <mxCell id="LaTPF1o16GnauaSsGzQP-12" value="themeId" style="edgeLabel;html=1;align=center;verticalAlign=middle;resizable=0;points=[];" vertex="1" connectable="0" parent="LaTPF1o16GnauaSsGzQP-8">
          <mxGeometry x="0.0286" y="-4" relative="1" as="geometry">
            <mxPoint as="offset" />
          </mxGeometry>
        </mxCell>
        <mxCell id="LaTPF1o16GnauaSsGzQP-4" value="Original Model" style="whiteSpace=wrap;html=1;aspect=fixed;" vertex="1" parent="1">
          <mxGeometry x="480" y="270" width="80" height="80" as="geometry" />
        </mxCell>
        <mxCell id="LaTPF1o16GnauaSsGzQP-7" value="" style="edgeStyle=orthogonalEdgeStyle;rounded=0;orthogonalLoop=1;jettySize=auto;html=1;" edge="1" parent="1" source="LaTPF1o16GnauaSsGzQP-5" target="LaTPF1o16GnauaSsGzQP-4">
          <mxGeometry relative="1" as="geometry" />
        </mxCell>
        <mxCell id="LaTPF1o16GnauaSsGzQP-5" value="DB" style="whiteSpace=wrap;html=1;aspect=fixed;" vertex="1" parent="1">
          <mxGeometry x="630" y="270" width="80" height="80" as="geometry" />
        </mxCell>
        <mxCell id="LaTPF1o16GnauaSsGzQP-9" value="Client" style="ellipse;whiteSpace=wrap;html=1;" vertex="1" parent="1">
          <mxGeometry x="100" y="270" width="120" height="80" as="geometry" />
        </mxCell>
        <mxCell id="LaTPF1o16GnauaSsGzQP-22" value="" style="edgeStyle=orthogonalEdgeStyle;rounded=0;orthogonalLoop=1;jettySize=auto;html=1;" edge="1" parent="1" source="LaTPF1o16GnauaSsGzQP-17" target="LaTPF1o16GnauaSsGzQP-21">
          <mxGeometry relative="1" as="geometry">
            <Array as="points">
              <mxPoint x="500" y="480" />
              <mxPoint x="500" y="480" />
            </Array>
          </mxGeometry>
        </mxCell>
        <mxCell id="LaTPF1o16GnauaSsGzQP-28" value="" style="edgeStyle=orthogonalEdgeStyle;rounded=0;orthogonalLoop=1;jettySize=auto;html=1;" edge="1" parent="1" source="LaTPF1o16GnauaSsGzQP-17" target="LaTPF1o16GnauaSsGzQP-23">
          <mxGeometry relative="1" as="geometry" />
        </mxCell>
        <mxCell id="LaTPF1o16GnauaSsGzQP-17" value="Original Model" style="whiteSpace=wrap;html=1;aspect=fixed;" vertex="1" parent="1">
          <mxGeometry x="360" y="440" width="80" height="80" as="geometry" />
        </mxCell>
        <mxCell id="LaTPF1o16GnauaSsGzQP-19" style="edgeStyle=orthogonalEdgeStyle;rounded=0;orthogonalLoop=1;jettySize=auto;html=1;exitX=1;exitY=0.5;exitDx=0;exitDy=0;" edge="1" parent="1" source="LaTPF1o16GnauaSsGzQP-18" target="LaTPF1o16GnauaSsGzQP-17">
          <mxGeometry relative="1" as="geometry" />
        </mxCell>
        <mxCell id="LaTPF1o16GnauaSsGzQP-20" value="Update Model" style="edgeLabel;html=1;align=center;verticalAlign=middle;resizable=0;points=[];" vertex="1" connectable="0" parent="LaTPF1o16GnauaSsGzQP-19">
          <mxGeometry x="-0.2889" relative="1" as="geometry">
            <mxPoint as="offset" />
          </mxGeometry>
        </mxCell>
        <mxCell id="LaTPF1o16GnauaSsGzQP-18" value="Client" style="ellipse;whiteSpace=wrap;html=1;" vertex="1" parent="1">
          <mxGeometry x="110" y="440" width="120" height="80" as="geometry" />
        </mxCell>
        <mxCell id="LaTPF1o16GnauaSsGzQP-21" value="DB" style="whiteSpace=wrap;html=1;aspect=fixed;" vertex="1" parent="1">
          <mxGeometry x="550" y="440" width="80" height="80" as="geometry" />
        </mxCell>
        <mxCell id="LaTPF1o16GnauaSsGzQP-30" value="" style="edgeStyle=orthogonalEdgeStyle;rounded=0;orthogonalLoop=1;jettySize=auto;html=1;" edge="1" parent="1" source="LaTPF1o16GnauaSsGzQP-23" target="LaTPF1o16GnauaSsGzQP-29">
          <mxGeometry relative="1" as="geometry" />
        </mxCell>
        <mxCell id="LaTPF1o16GnauaSsGzQP-23" value="&lt;meta charset=&quot;utf-8&quot;&gt;&lt;span style=&quot;color: rgb(0, 0, 0); font-family: helvetica; font-size: 12px; font-style: normal; font-weight: 400; letter-spacing: normal; text-align: center; text-indent: 0px; text-transform: none; word-spacing: 0px; background-color: rgb(248, 249, 250); display: inline; float: none;&quot;&gt;ThemeFilter&lt;/span&gt;" style="whiteSpace=wrap;html=1;aspect=fixed;" vertex="1" parent="1">
          <mxGeometry x="360" y="620" width="80" height="80" as="geometry" />
        </mxCell>
        <mxCell id="LaTPF1o16GnauaSsGzQP-29" value="Model Update Message" style="rounded=1;whiteSpace=wrap;html=1;" vertex="1" parent="1">
          <mxGeometry x="340" y="750" width="120" height="60" as="geometry" />
        </mxCell>
        <mxCell id="LaTPF1o16GnauaSsGzQP-32" value="" style="edgeStyle=orthogonalEdgeStyle;rounded=0;orthogonalLoop=1;jettySize=auto;html=1;" edge="1" parent="1" source="LaTPF1o16GnauaSsGzQP-31" target="LaTPF1o16GnauaSsGzQP-23">
          <mxGeometry relative="1" as="geometry" />
        </mxCell>
        <mxCell id="LaTPF1o16GnauaSsGzQP-33" value="themeId" style="edgeLabel;html=1;align=center;verticalAlign=middle;resizable=0;points=[];" vertex="1" connectable="0" parent="LaTPF1o16GnauaSsGzQP-32">
          <mxGeometry x="0.04" y="-3" relative="1" as="geometry">
            <mxPoint as="offset" />
          </mxGeometry>
        </mxCell>
        <mxCell id="LaTPF1o16GnauaSsGzQP-31" value="QipuId/ThemeId Config" style="whiteSpace=wrap;html=1;aspect=fixed;" vertex="1" parent="1">
          <mxGeometry x="540" y="620" width="80" height="80" as="geometry" />
        </mxCell>
      </root>
    </mxGraphModel>
  </diagram>
</mxfile>
